<svg width="26" height="39" viewBox="0 0 26 39" fill="none" xmlns="http://www.w3.org/2000/svg">
<path fill-rule="evenodd" clip-rule="evenodd" d="M3.90989 0.532836C4.58338 1.06283 5.53132 5.69359 8.75845 24.2116C9.41183 27.9616 10.1823 29.3091 11.8663 29.644C13.2229 29.9137 15.3775 28.9438 15.7861 27.8793C15.9649 27.4139 16.4565 23.2012 16.8783 18.5182C17.3381 13.4179 17.8686 9.72383 18.2021 9.30575C19.0054 8.29853 20.2846 8.44823 20.9852 9.63151C21.5057 10.5104 21.4773 11.8761 20.7842 19.2988C20.3406 24.0529 19.7536 28.5053 19.48 29.1936C17.5116 34.1433 10.9454 35.4084 7.42023 31.5179C5.69609 29.6149 5.69523 29.6112 2.9318 14.1162C0.840548 2.38852 0.75269 1.60467 1.44453 0.809445C2.30551 -0.180943 2.91649 -0.249648 3.90989 0.532836ZM10.2645 0.997815C10.7199 1.56876 13.8439 23.5447 13.8439 26.1761C13.8439 28.6131 11.7811 29.528 10.6308 27.6013C10.2903 27.0318 9.29558 21.0758 8.38741 14.1736C6.64535 0.930463 6.66152 0.419109 8.81789 0.419109C9.35983 0.419109 10.011 0.679362 10.2645 0.997815ZM25.4457 15.2899C26.252 16.1298 26.2424 16.3322 24.9924 24.9855C24.5716 27.9003 23.8723 30.6885 23.1988 32.1388C18.7462 41.7225 4.94045 41.1365 0.949805 31.1944C0.0945118 29.0635 -0.319812 23.4528 0.290301 22.2663C0.819125 21.2377 2.56904 21.0299 3.24558 21.9147C3.48508 22.2277 3.77659 23.951 3.89416 25.7448C4.02658 27.7738 4.41904 29.5607 4.933 30.4733C7.68419 35.3616 13.906 36.5335 17.7777 32.8922C19.9162 30.8814 20.5914 28.8997 21.5459 21.8301C22.097 17.7521 22.5314 15.9423 23.1031 15.3473C24.086 14.3241 24.5078 14.3137 25.4457 15.2899Z" fill="#009DE0"/>
</svg>
