<svg width="279" height="55" viewBox="0 0 279 55" fill="none" xmlns="http://www.w3.org/2000/svg">
<g clip-path="url(#clip0_2235_80)">
<rect width="279" height="55" fill="white"/>
<rect x="13" y="8" width="265" height="57" fill="white"/>
<path d="M22.8918 8.68535C22.9182 8.43395 23.3224 7.94532 23.7901 7.59975C25.2786 6.49906 27.5153 6.97673 28.0776 8.51532C28.2928 9.10337 28.3634 13.7182 28.304 23.2741L28.2174 37.1774L27.2803 37.844C26.0357 38.7299 24.8611 38.7294 23.7482 37.8429L22.9096 37.1748L22.8766 23.1586C22.8585 15.4497 22.8651 8.93676 22.8918 8.68535Z" fill="#0077FF"/>
<path d="M30.5126 8.30482L31.4497 7.63792C32.7714 6.69721 34.6318 6.82017 35.4819 7.90441C36.0195 8.59028 35.9771 37.4564 35.4365 38.7061C34.416 41.0656 32.5809 42.7087 29.8086 43.7445C28.4446 44.2541 27.8283 44.3389 25.4917 44.3389C23.0596 44.3389 22.5819 44.2669 21.057 43.6704C18.9402 42.8426 17.0237 41.3054 16.0485 39.6537L15.3065 38.3967L15.2279 25.3372L15.1496 12.2777L16.039 11.6814C17.5068 10.6975 19.3468 10.9384 20.1811 12.2233C20.5515 12.794 20.6149 14.6594 20.6189 25.0723L20.6238 37.2539L21.2645 38.151C22.0362 39.2313 23.9588 40.1108 25.5483 40.1108C26.9923 40.1108 28.7114 39.402 29.5561 38.4591L30.2257 37.711L30.3692 23.0078L30.5126 8.30482Z" fill="#0077FF"/>
<path d="M8.00044 28.2633C8.01135 18.8167 8.03172 18.6732 9.4565 18.0207C10.4374 17.5713 12.0209 17.8072 12.7961 18.518C13.4414 19.1097 13.4416 19.1133 13.4416 27.8649C13.4416 32.7636 13.5687 37.1625 13.73 37.8513C14.1744 39.7474 15.5266 41.7145 17.3094 43.0577C20.2018 45.2367 24.0136 46.1237 27.7899 45.4965C31.9629 44.8033 35.1204 42.6847 36.8378 39.4251C37.3175 38.5148 37.3912 37.6358 37.4816 31.7688L37.5832 25.1408L38.3062 24.535C38.7041 24.2017 39.3726 23.8758 39.7918 23.8109C40.8031 23.6544 42.26 24.2235 42.6663 24.934C43.1563 25.7904 43.0883 37.2825 42.5822 39.1618C41.9046 41.68 40.3251 43.8805 37.7123 45.9472C33.9641 48.9117 30.5973 50.0154 25.3483 49.9998C23.0616 49.9932 22.0133 49.8712 20.184 49.3988C14.2573 47.8679 9.56897 43.6711 8.41388 38.8627C8.08479 37.4918 7.9927 35.1325 8.00044 28.2633Z" fill="#0077FF"/>
<path d="M64.6934 27.1367C63.6543 27.1367 63.0254 26.4941 63.0254 25.291V17.8672H62.8887L59.9902 23.9512C59.5801 24.8125 59.0059 25.291 58.1855 25.291C57.3516 25.291 56.7363 24.8125 56.3262 23.9648L53.4004 17.8672H53.2637V25.291C53.2637 26.5078 52.6348 27.1367 51.5957 27.1367C50.5566 27.1367 49.9414 26.4941 49.9414 25.291V14.75C49.9414 13.2598 50.8711 12.3711 52.1699 12.3711C53.4414 12.3711 54.2891 12.959 54.9043 14.3672L58.1035 21.4492H58.2539L61.4668 14.3672C62.082 12.9453 62.8887 12.3711 64.1465 12.3711C65.4453 12.3711 66.3477 13.2598 66.3477 14.75V25.291C66.3477 26.5078 65.7188 27.1367 64.6934 27.1367ZM69.6289 20.6973V18.8242C69.6289 14.8594 72.2539 12.1797 76.1504 12.1797C79.8418 12.1797 82.4531 14.8047 82.4531 18.3867C82.4531 20.0137 81.9883 20.5469 80.6348 20.5469H73.293V21.1758C73.3066 23.1992 74.5918 24.498 76.7383 24.498C77.8594 24.498 78.6523 24.2246 79.2949 23.6914C79.9922 23.1582 80.2383 22.9531 80.7988 22.9531C81.5508 22.9531 82.0703 23.4727 82.0703 24.2656C82.0703 24.9082 81.6738 25.5234 80.9902 26.0156C80.0332 26.8223 78.3789 27.3145 76.5059 27.3145C72.2539 27.3145 69.6289 24.8125 69.6289 20.6973ZM73.293 18.2637H79.0078V18.2363C79.0078 16.2539 77.9141 14.9688 76.2051 14.9688C74.4277 14.9688 73.293 16.2812 73.293 18.2363V18.2637ZM85.1465 20.6973V18.6602C85.1465 14.8047 87.5117 12.1797 91.6816 12.1797C93.1035 12.1797 94.5527 12.5078 95.6465 13.2324C96.5352 13.8066 97.2461 14.668 97.2461 15.584C97.2461 16.418 96.6992 17.0605 95.8105 17.0605C95.1133 17.0605 94.7305 16.6504 94.3613 16.2949C93.7324 15.5566 92.9395 15.1328 91.873 15.1328C89.8496 15.1328 88.8516 16.6367 88.8516 18.8516V20.5195C88.8516 22.7891 89.7266 24.3613 91.9004 24.3613C92.8984 24.3613 93.7598 23.9922 94.4844 23.1582C94.8262 22.8301 95.2227 22.4062 95.8926 22.4062C96.6992 22.4062 97.2871 22.9395 97.2871 23.8555C97.2871 24.7852 96.5898 25.7012 95.5371 26.3438C94.416 27.0137 93.0762 27.3145 91.6953 27.3145C87.6074 27.3145 85.1465 24.8535 85.1465 20.6973ZM105.463 27.1367C104.342 27.1367 103.672 26.4531 103.672 25.1543V15.2148H100.773C99.9258 15.2148 99.3516 14.668 99.3516 13.8477C99.3516 13.0273 99.9258 12.4941 100.773 12.4941H110.166C111.014 12.4941 111.588 13.0273 111.588 13.8477C111.588 14.668 111.014 15.2148 110.166 15.2148H107.268V25.1543C107.268 26.4668 106.57 27.1367 105.463 27.1367ZM120.078 12.1797C124.029 12.1797 126.764 14.6816 126.764 18.8516V20.5605C126.764 24.8672 124.029 27.3145 120.078 27.3145C116.113 27.3145 113.379 24.8672 113.379 20.5742V18.8652C113.379 14.6816 116.113 12.1797 120.078 12.1797ZM120.078 14.9824C118.232 14.9824 117.084 16.4863 117.084 18.9336V20.5469C117.084 23.0215 118.232 24.5117 120.078 24.5117C121.951 24.5117 123.059 23.0215 123.059 20.5469V18.9336C123.059 16.4863 121.951 14.9824 120.078 14.9824ZM133.572 30.1719C133.572 31.4434 132.93 32.1543 131.768 32.1543C130.619 32.1543 129.977 31.4434 129.977 30.1719V14.3535C129.977 13.0684 130.605 12.3574 131.74 12.3574C132.807 12.3574 133.449 12.9727 133.518 14.0938V14.791H133.695C134.283 13.2324 135.883 12.2617 137.934 12.2617C141.297 12.2617 143.334 14.6816 143.334 18.7148V20.7246C143.334 24.7578 141.27 27.1914 137.879 27.1914C135.896 27.1914 134.393 26.3164 133.764 24.7852H133.572V30.1719ZM133.572 20.7793C133.572 22.9121 134.816 24.3066 136.662 24.3066C138.549 24.3066 139.643 22.8711 139.643 20.3828V19.0703C139.643 16.5684 138.549 15.1465 136.621 15.1465C134.734 15.1465 133.572 16.5273 133.572 18.8516V20.7793ZM152.672 12.1797C156.623 12.1797 159.357 14.6816 159.357 18.8516V20.5605C159.357 24.8672 156.623 27.3145 152.672 27.3145C148.707 27.3145 145.973 24.8672 145.973 20.5742V18.8652C145.973 14.6816 148.707 12.1797 152.672 12.1797ZM152.672 14.9824C150.826 14.9824 149.678 16.4863 149.678 18.9336V20.5469C149.678 23.0215 150.826 24.5117 152.672 24.5117C154.545 24.5117 155.652 23.0215 155.652 20.5469V18.9336C155.652 16.4863 154.545 14.9824 152.672 14.9824ZM179.059 27.1641C178.225 27.1641 177.787 26.8633 176.967 25.7695L172.975 20.8066H172.838V25.1406C172.838 26.4531 172.236 27.1367 171.088 27.1367C169.939 27.1367 169.338 26.4395 169.338 25.1406V20.8066H169.201L165.209 25.7695C164.402 26.8633 163.951 27.1641 163.117 27.1641C162.242 27.1641 161.545 26.5215 161.545 25.7012C161.545 25.1543 161.736 24.7305 162.27 24.0879L166.234 19.3164L162.379 15.1055C161.955 14.6133 161.736 14.1211 161.736 13.6699C161.736 12.9043 162.475 12.248 163.363 12.248C164.033 12.248 164.416 12.5078 165.141 13.4512L169.201 18.2363H169.338V14.3535C169.338 13.041 169.939 12.3574 171.088 12.3574C172.236 12.3574 172.838 13.0547 172.838 14.3535V18.2363H172.975L177.049 13.4512C177.76 12.5078 178.143 12.248 178.826 12.248C179.701 12.248 180.439 12.9043 180.439 13.6699C180.439 14.1211 180.221 14.6133 179.797 15.1055L175.941 19.3164L179.906 24.0879C180.439 24.7305 180.631 25.1543 180.631 25.7012C180.631 26.5215 179.947 27.1641 179.059 27.1641ZM183.898 30.9512C182.873 30.9512 182.34 30.377 182.34 29.2559V26.4668C182.34 25.1406 182.805 24.4434 183.816 24.2793C184.637 23.6641 184.896 22.3242 185.074 17.8535L185.184 14.6953C185.238 13.2188 186.004 12.4941 187.521 12.4941H194.18C195.697 12.4941 196.518 13.2598 196.518 14.6953V24.2793H196.641C198.049 24.3613 198.664 25.0996 198.664 26.6172V29.2559C198.664 30.3633 198.117 30.9512 197.092 30.9512C196.053 30.9512 195.52 30.377 195.52 29.2559V27H185.471V29.2559C185.471 30.3633 184.924 30.9512 183.898 30.9512ZM192.949 24.2793V15.2148H188.438L188.314 17.9082C188.137 21.8867 187.918 23.2539 187.289 24.1426V24.2793H192.949ZM200.715 20.6973V18.8242C200.715 14.8594 203.34 12.1797 207.236 12.1797C210.928 12.1797 213.539 14.8047 213.539 18.3867C213.539 20.0137 213.074 20.5469 211.721 20.5469H204.379V21.1758C204.393 23.1992 205.678 24.498 207.824 24.498C208.945 24.498 209.738 24.2246 210.381 23.6914C211.078 23.1582 211.324 22.9531 211.885 22.9531C212.637 22.9531 213.156 23.4727 213.156 24.2656C213.156 24.9082 212.76 25.5234 212.076 26.0156C211.119 26.8223 209.465 27.3145 207.592 27.3145C203.34 27.3145 200.715 24.8125 200.715 20.6973ZM204.379 18.2637H210.094V18.2363C210.094 16.2539 209 14.9688 207.291 14.9688C205.514 14.9688 204.379 16.2812 204.379 18.2363V18.2637ZM225.912 25.1543V20.9023H220.389V25.1543C220.389 26.4668 219.691 27.1367 218.584 27.1367C217.477 27.1367 216.793 26.4531 216.793 25.1543V14.3398C216.793 13.0273 217.477 12.3574 218.598 12.3574C219.705 12.3574 220.389 13.041 220.389 14.3398V18.1816H225.912V14.3398C225.912 13.0273 226.582 12.3574 227.703 12.3574C228.811 12.3574 229.508 13.041 229.508 14.3398V25.1543C229.508 26.4668 228.797 27.1367 227.689 27.1367C226.582 27.1367 225.912 26.4531 225.912 25.1543ZM244.479 27.1367C243.357 27.1367 242.77 26.4668 242.77 25.1406V17.6484H242.633L237.834 25.0859C236.863 26.6855 236.33 27.1367 235.154 27.1367C234.02 27.1367 233.35 26.3301 233.35 24.9355V14.3535C233.35 13.0273 233.924 12.3574 235.059 12.3574C236.193 12.3574 236.768 13.0273 236.768 14.3535V21.8457H236.918L241.744 14.4082C242.756 12.7812 243.248 12.3438 244.355 12.3438C245.545 12.3438 246.188 13.1094 246.188 14.4219V25.1406C246.188 26.4668 245.613 27.1367 244.479 27.1367ZM249.469 20.6973V18.8242C249.469 14.8594 252.094 12.1797 255.99 12.1797C259.682 12.1797 262.293 14.8047 262.293 18.3867C262.293 20.0137 261.828 20.5469 260.475 20.5469H253.133V21.1758C253.146 23.1992 254.432 24.498 256.578 24.498C257.699 24.498 258.492 24.2246 259.135 23.6914C259.832 23.1582 260.078 22.9531 260.639 22.9531C261.391 22.9531 261.91 23.4727 261.91 24.2656C261.91 24.9082 261.514 25.5234 260.83 26.0156C259.873 26.8223 258.219 27.3145 256.346 27.3145C252.094 27.3145 249.469 24.8125 249.469 20.6973ZM253.133 18.2637H258.848V18.2363C258.848 16.2539 257.754 14.9688 256.045 14.9688C254.268 14.9688 253.133 16.2812 253.133 18.2363V18.2637Z" fill="black" fill-opacity="0.72"/>
<path d="M66.8125 45.1641C65.9785 45.1641 65.541 44.8633 64.7207 43.7695L60.7285 38.8066H60.5918V43.1406C60.5918 44.4531 59.9902 45.1367 58.8418 45.1367C57.6934 45.1367 57.0918 44.4395 57.0918 43.1406V38.8066H56.9551L52.9629 43.7695C52.1562 44.8633 51.7051 45.1641 50.8711 45.1641C49.9961 45.1641 49.2988 44.5215 49.2988 43.7012C49.2988 43.1543 49.4902 42.7305 50.0234 42.0879L53.9883 37.3164L50.1328 33.1055C49.709 32.6133 49.4902 32.1211 49.4902 31.6699C49.4902 30.9043 50.2285 30.248 51.1172 30.248C51.7871 30.248 52.1699 30.5078 52.8945 31.4512L56.9551 36.2363H57.0918V32.3535C57.0918 31.041 57.6934 30.3574 58.8418 30.3574C59.9902 30.3574 60.5918 31.0547 60.5918 32.3535V36.2363H60.7285L64.8027 31.4512C65.5137 30.5078 65.8965 30.248 66.5801 30.248C67.4551 30.248 68.1934 30.9043 68.1934 31.6699C68.1934 32.1211 67.9746 32.6133 67.5508 33.1055L63.6953 37.3164L67.6602 42.0879C68.1934 42.7305 68.3848 43.1543 68.3848 43.7012C68.3848 44.5215 67.7012 45.1641 66.8125 45.1641ZM70.6133 38.6973V36.8242C70.6133 32.8594 73.2383 30.1797 77.1348 30.1797C80.8262 30.1797 83.4375 32.8047 83.4375 36.3867C83.4375 38.0137 82.9727 38.5469 81.6191 38.5469H74.2773V39.1758C74.291 41.1992 75.5762 42.498 77.7227 42.498C78.8438 42.498 79.6367 42.2246 80.2793 41.6914C80.9766 41.1582 81.2227 40.9531 81.7832 40.9531C82.5352 40.9531 83.0547 41.4727 83.0547 42.2656C83.0547 42.9082 82.6582 43.5234 81.9746 44.0156C81.0176 44.8223 79.3633 45.3145 77.4902 45.3145C73.2383 45.3145 70.6133 42.8125 70.6133 38.6973ZM74.2773 36.2637H79.9922V36.2363C79.9922 34.2539 78.8984 32.9688 77.1895 32.9688C75.4121 32.9688 74.2773 34.2812 74.2773 36.2363V36.2637ZM86.1309 38.6973V36.6602C86.1309 32.8047 88.4961 30.1797 92.666 30.1797C94.0879 30.1797 95.5371 30.5078 96.6309 31.2324C97.5195 31.8066 98.2305 32.668 98.2305 33.584C98.2305 34.418 97.6836 35.0605 96.7949 35.0605C96.0977 35.0605 95.7148 34.6504 95.3457 34.2949C94.7168 33.5566 93.9238 33.1328 92.8574 33.1328C90.834 33.1328 89.8359 34.6367 89.8359 36.8516V38.5195C89.8359 40.7891 90.7109 42.3613 92.8848 42.3613C93.8828 42.3613 94.7441 41.9922 95.4688 41.1582C95.8105 40.8301 96.207 40.4062 96.877 40.4062C97.6836 40.4062 98.2715 40.9395 98.2715 41.8555C98.2715 42.7852 97.5742 43.7012 96.5215 44.3438C95.4004 45.0137 94.0605 45.3145 92.6797 45.3145C88.5918 45.3145 86.1309 42.8535 86.1309 38.6973ZM106.447 45.1367C105.326 45.1367 104.656 44.4531 104.656 43.1543V33.2148H101.758C100.91 33.2148 100.336 32.668 100.336 31.8477C100.336 31.0273 100.91 30.4941 101.758 30.4941H111.15C111.998 30.4941 112.572 31.0273 112.572 31.8477C112.572 32.668 111.998 33.2148 111.15 33.2148H108.252V43.1543C108.252 44.4668 107.555 45.1367 106.447 45.1367ZM121.062 30.1797C125.014 30.1797 127.748 32.6816 127.748 36.8516V38.5605C127.748 42.8672 125.014 45.3145 121.062 45.3145C117.098 45.3145 114.363 42.8672 114.363 38.5742V36.8652C114.363 32.6816 117.098 30.1797 121.062 30.1797ZM121.062 32.9824C119.217 32.9824 118.068 34.4863 118.068 36.9336V38.5469C118.068 41.0215 119.217 42.5117 121.062 42.5117C122.936 42.5117 124.043 41.0215 124.043 38.5469V36.9336C124.043 34.4863 122.936 32.9824 121.062 32.9824ZM133.312 30.4941H137.947C140.695 30.4941 142.5 31.9023 142.5 34.1445C142.5 35.7852 141.543 36.9336 140.012 37.2617V37.3848C142.021 37.5762 143.238 38.9844 143.238 40.8984C143.238 43.4688 141.064 45 137.947 45H133.312C131.781 45 130.975 44.2344 130.975 42.7988V32.6953C130.975 31.2598 131.781 30.4941 133.312 30.4941ZM134.502 32.8594V36.4141H136.607C138.18 36.4141 139.055 35.8398 139.055 34.5547C139.055 33.4062 138.152 32.8594 136.936 32.8594H134.502ZM134.502 38.6426V42.6211H136.922C138.535 42.6211 139.697 42.1289 139.697 40.6523C139.697 39.3262 138.672 38.6426 137.113 38.6426H134.502Z" fill="#0082FF"/>
</g>
<defs>
<clipPath id="clip0_2235_80">
<rect width="279" height="55" fill="white"/>
</clipPath>
</defs>
</svg>
