<svg xmlns="http://www.w3.org/2000/svg">

<symbol id="dict"  viewBox="0 0 27 27" >
   <path fill-rule="evenodd" clip-rule="evenodd" d="M15.8921 0.217864C15.2516 0.334429 14.4461 0.481852 14.1021 0.545564C13.7581 0.60922 12.9817 0.748444 12.3768 0.854926C10.9004 1.11487 9.83114 1.30495 8.94768 1.46451C7.97308 1.64058 6.57983 1.88955 5.38918 2.10035C4.85541 2.19487 4.09842 2.33116 3.70699 2.40318C3.31555 2.4752 2.86912 2.5516 2.71492 2.57298C2.56072 2.59431 2.29968 2.67586 2.13478 2.75415C1.55826 3.02788 1.07585 3.82389 0.921308 4.75647C0.699776 6.09303 0.886414 7.87707 1.35523 8.90449C1.43662 9.08283 1.53428 9.26189 1.57223 9.30239C1.61023 9.34288 1.65945 9.41956 1.68162 9.47274C1.7169 9.5574 1.67476 9.58792 1.34496 9.7164C0.489372 10.0498 0.428856 10.0924 0.428856 10.3627C0.428856 10.5825 0.63128 10.8127 0.981566 10.9914C1.51094 11.2613 1.79251 11.7728 1.91864 12.6935C1.98364 13.1676 1.99395 13.8136 1.94503 14.3425L1.91695 14.6462L1.42429 14.8528C0.775173 15.125 0.404874 15.3259 0.180839 15.5272C-0.10453 15.7837 -0.0636401 15.8846 0.385722 16.0326C0.539924 16.0834 0.679935 16.1421 0.696886 16.163C0.713794 16.1839 0.658497 16.3128 0.573956 16.4496C-0.0148133 17.4017 -0.157843 19.0298 0.19158 20.8021C0.357686 21.6446 0.698568 22.3583 1.09423 22.6918C1.22682 22.8035 1.65358 23.0144 2.25732 23.2665C2.78182 23.4855 3.46328 23.7711 3.77169 23.9013C4.08009 24.0315 4.8856 24.3678 5.56172 24.6487C6.23783 24.9295 7.04334 25.2657 7.35175 25.3957C7.66015 25.5258 8.46566 25.8622 9.14178 26.1433C9.81789 26.4245 10.5749 26.7414 10.824 26.8475C11.3494 27.0715 11.1401 27.0998 12.8081 26.5786C13.3893 26.397 14.0978 26.1761 14.3825 26.0878C14.9561 25.9098 16.3412 25.4782 17.4018 25.1471C17.7814 25.0286 18.3831 24.8416 18.7389 24.7315C19.9945 24.3431 20.645 24.1408 21.4132 23.8999C23.1324 23.3608 24.5151 22.9308 25.2426 22.7089C25.6742 22.5772 26.0512 22.4315 26.1048 22.3757L26.2003 22.2765L26.1144 22.1547C25.9365 21.9022 25.423 21.6088 24.6197 21.3007L24.2462 21.1574L24.2148 20.6747C24.1131 19.1062 24.4214 17.9579 25.0447 17.584C25.5257 17.2954 25.5849 17.2512 25.6662 17.12C25.8381 16.8427 25.7318 16.5579 25.4157 16.4481C25.0255 16.3127 25.0253 16.3119 25.2895 15.9778C25.8642 15.2515 26.1546 14.0571 26.1517 12.4322C26.1498 11.329 26.0373 10.7699 25.6823 10.098C25.5488 9.84538 25.5076 9.87673 26.2806 9.64283C27.0233 9.41812 27.1103 9.34155 26.9019 9.09629C26.7402 8.90599 26.4489 8.74011 25.7481 8.43928L25.0795 8.1523L25.0519 7.82688C24.9744 6.91552 25.0604 5.905 25.2587 5.39619C25.4561 4.88976 25.5615 4.76107 25.985 4.50855C26.5054 4.19835 26.6753 3.91686 26.5137 3.63287C26.4808 3.57503 26.1234 3.40844 25.5971 3.20545C24.176 2.65753 23.4467 2.37337 23.3326 2.32312C23.2733 2.29703 22.9919 2.18689 22.7072 2.07847C22.4225 1.97005 21.7626 1.7147 21.2407 1.51105C20.7188 1.30739 20.2044 1.11016 20.0976 1.07276C19.9909 1.03537 19.8065 0.966505 19.6879 0.919746C17.7281 0.147172 17.3047 -0.00712168 17.1649 0.000246725C17.1054 0.00334921 16.5327 0.101299 15.8921 0.217864ZM2.25279 4.10029C2.08651 4.16206 1.92157 4.42522 1.79851 4.82505C1.72639 5.05951 1.70422 5.2778 1.68925 5.90073C1.65777 7.20948 1.852 8.10665 2.26888 8.57795C2.37852 8.70194 2.49287 8.80338 2.52293 8.80338C2.553 8.80338 2.85597 8.90455 3.1962 9.02815C3.80839 9.25064 4.08005 9.34815 5.04412 9.69158C5.31694 9.78875 5.69543 9.92626 5.88522 9.99706C6.42227 10.1976 9.59313 11.3373 10.3495 11.6018C10.8285 11.7692 11.4657 12.0011 11.8129 12.1343C11.9654 12.1929 12.104 12.2215 12.121 12.1979C12.1673 12.1335 12.2637 8.13674 12.2202 8.08577C12.1995 8.06172 11.513 7.76327 10.6946 7.42261C9.87612 7.082 9.09972 6.75608 8.96925 6.6984C8.83877 6.64073 8.00414 6.29048 7.11452 5.92012C4.60959 4.87713 3.41717 4.37774 3.00995 4.20096C2.62085 4.03209 2.48511 4.01403 2.25279 4.10029ZM23.764 5.20395C23.2065 5.35353 22.2651 5.60323 21.672 5.75885C19.8723 6.23109 19.2208 6.40289 18.0057 6.72572C17.3651 6.89585 16.6082 7.09508 16.3235 7.16832C16.0388 7.24161 15.2818 7.44173 14.6413 7.61303C14.0007 7.78433 13.3195 7.96438 13.1273 8.01314L12.7779 8.10178L12.7501 9.02045C12.6793 11.3542 12.667 12.2383 12.7053 12.2383C12.7274 12.2383 15.0742 11.4925 17.9204 10.5809C20.7667 9.66931 23.4323 8.81773 23.844 8.68843L24.5926 8.45336L24.5668 8.25441C24.5526 8.14499 24.5288 7.74383 24.5141 7.36294C24.4827 6.55353 24.5687 5.74732 24.738 5.26483C24.7953 5.10118 24.8423 4.95785 24.8423 4.94627C24.8423 4.91442 24.8474 4.9132 23.764 5.20395ZM23.764 10.7925C23.42 10.9383 22.5853 11.2879 21.9092 11.5693C20.6992 12.0729 19.8211 12.4412 18.588 12.9623C18.244 13.1077 17.2395 13.5292 16.3558 13.8992L14.7491 14.5717L14.7485 14.8039C14.7472 15.2557 14.8477 18.6929 14.8628 18.7154C14.8772 18.7369 15.11 18.6596 15.9353 18.3598C16.1251 18.2908 16.5327 18.1433 16.8411 18.0319C17.1495 17.9205 17.528 17.7838 17.6822 17.728C17.9536 17.6298 19.7037 17.0014 20.0976 16.8607C20.2044 16.8225 20.7867 16.6117 21.3916 16.3922C21.9966 16.1727 22.6177 15.9489 22.7719 15.8948C22.9261 15.8408 23.2755 15.7157 23.5483 15.6169C23.8211 15.5181 24.1635 15.3945 24.3093 15.3423C24.7375 15.1887 24.9638 14.8897 25.1362 14.2497C25.286 13.694 25.3288 13.2248 25.3067 12.3843C25.2841 11.5291 25.2245 11.2387 24.9957 10.8705C24.8683 10.6654 24.6532 10.5186 24.4878 10.524C24.4337 10.5258 24.108 10.6466 23.764 10.7925ZM2.17735 11.5014C2.44521 12.2852 2.54019 13.1755 2.46708 14.2166C2.43982 14.6045 2.42407 14.9303 2.43209 14.9405C2.44012 14.9508 3.56969 15.318 4.94232 15.7564C6.31495 16.1948 8.96394 17.0411 10.8289 17.6369C12.6939 18.2327 14.2447 18.7203 14.275 18.7203C14.3299 18.7203 14.3168 17.5666 14.2368 15.344L14.2099 14.5993L13.2179 14.3389C12.6722 14.1958 11.8279 13.9726 11.3416 13.843C10.8552 13.7133 10.3312 13.5769 10.177 13.5398C9.91852 13.4775 8.42896 13.083 7.24391 12.7629C6.9711 12.6892 6.16558 12.4768 5.45388 12.291C3.80818 11.8612 2.88318 11.6132 2.2458 11.431C2.15967 11.4063 2.14875 11.4176 2.17735 11.5014ZM1.35622 17.16C1.02138 17.4224 0.861914 18.0315 0.860749 19.0527C0.8598 19.8731 0.959783 20.5816 1.14219 21.0471C1.38508 21.667 1.406 21.6819 2.67179 22.1312C2.99205 22.2448 3.62288 22.4712 4.07362 22.6342C5.50133 23.1504 5.77902 23.2503 6.66162 23.565C7.13608 23.7342 7.68927 23.9334 7.89091 24.0077C8.09256 24.082 8.44194 24.2084 8.66731 24.2886C8.89268 24.3687 9.27118 24.5047 9.50841 24.5907C10.8858 25.0904 11.2073 25.2022 11.2656 25.2022C11.3204 25.2022 11.3345 25.0029 11.3581 23.8864C11.3734 23.1628 11.3976 22.2335 11.4119 21.8214L11.4379 21.0722L11.1633 20.9526C11.0123 20.8867 10.219 20.5558 9.40058 20.2171C8.58212 19.8784 7.77661 19.5418 7.61055 19.469C7.44448 19.3963 6.61956 19.0491 5.77738 18.6974C4.93521 18.3458 3.97441 17.9439 3.64229 17.8044C1.71324 16.9939 1.60661 16.9638 1.35622 17.16ZM23.3758 18.0835C23.1267 18.1512 22.3891 18.3467 21.7367 18.5182C21.0843 18.6896 20.2206 18.9179 19.8173 19.0255C19.414 19.1332 18.8511 19.2816 18.5664 19.3554C16.8884 19.7902 16.1214 20.0209 15.5311 20.2682C14.9324 20.519 14.8499 20.5408 14.6804 20.4919C14.4788 20.4339 14.4818 20.4333 12.8151 20.8736C12.3562 20.9948 11.9732 21.1038 11.9638 21.1159C11.94 21.1465 11.8402 25.1966 11.8625 25.2236C11.8783 25.2426 16.8701 23.6678 17.7037 23.3808C17.8698 23.3236 19.2806 22.8712 20.8388 22.3754C22.3969 21.8795 23.6912 21.4584 23.715 21.4396C23.7431 21.4173 23.7446 21.2709 23.7193 21.0185C23.6663 20.4896 23.6682 19.5853 23.7231 19.1875C23.7481 19.0067 23.816 18.6667 23.8741 18.4319C23.9321 18.1972 23.9796 17.9915 23.9796 17.9749C23.9796 17.9293 23.8718 17.9487 23.3758 18.0835Z" />
</symbol>

  <symbol id="cources" viewBox="0 0 33 31" >
    <path fill-rule="evenodd" clip-rule="evenodd" d="M14.2235 0.067431C14.2235 0.104788 14.116 0.450624 13.9846 0.835955L13.7458 1.53658H12.8844H12.0229L12.6944 2.04501C13.0638 2.32469 13.366 2.57736 13.366 2.60663C13.366 2.65328 12.9945 3.76249 12.865 4.10245C12.834 4.18385 13.0598 4.05868 13.498 3.7516C13.8726 3.48897 14.2063 3.27411 14.2396 3.27411C14.2728 3.27411 14.572 3.48556 14.9043 3.74398C15.2366 4.00241 15.5181 4.18471 15.5298 4.14916C15.5416 4.11354 15.4602 3.78602 15.3491 3.42127C15.238 3.05652 15.148 2.7163 15.1491 2.66524C15.1503 2.61419 15.4521 2.36191 15.8199 2.10462L16.4887 1.63682L15.6386 1.60341L14.7885 1.57L14.5555 0.785233C14.4273 0.35359 14.3003 0.000202237 14.273 1.75294e-06C14.2458 -0.00026556 14.2235 0.0300741 14.2235 0.067431ZM19.3554 0.782292L19.1226 1.57L18.2727 1.60341L17.4229 1.63682L18.0962 2.10462C18.4665 2.36191 18.7702 2.61753 18.771 2.67266C18.7719 2.72779 18.6728 3.08867 18.5508 3.4746C18.4288 3.86053 18.3398 4.18826 18.353 4.20289C18.3662 4.21753 18.6588 4.01103 19.0034 3.74405C19.3639 3.46471 19.6696 3.27411 19.7236 3.2951C19.7753 3.31515 20.1014 3.53073 20.4484 3.77419L21.0794 4.21672L20.8179 3.44239C20.6741 3.01649 20.5564 2.64272 20.5564 2.61171C20.5564 2.58064 20.8458 2.33357 21.1995 2.06265L21.8427 1.57L21.0207 1.55115C20.4647 1.53832 20.1822 1.50591 20.1477 1.45091C20.1197 1.40613 20.0035 1.08382 19.8895 0.734643C19.7756 0.385466 19.6612 0.0761186 19.6353 0.047182C19.6095 0.0182454 19.4835 0.349045 19.3554 0.782292ZM8.94066 2.90723L8.70852 3.57484L8.03573 3.55031C7.66572 3.53675 7.363 3.54296 7.363 3.56401C7.363 3.585 7.60048 3.78542 7.89073 4.00922C8.18099 4.23303 8.41847 4.4275 8.41847 4.44127C8.41847 4.4551 8.3275 4.72749 8.21635 5.0466C8.10513 5.3657 8.02702 5.63983 8.04272 5.65574C8.05849 5.67164 8.3087 5.51901 8.59876 5.31658L9.12623 4.94849L9.64578 5.34271C9.93155 5.5595 10.1749 5.72718 10.1866 5.71528C10.1984 5.70345 10.1319 5.44095 10.0389 5.132C9.94586 4.82312 9.86974 4.53643 9.86974 4.49486C9.86974 4.45336 10.1146 4.24439 10.414 4.03054L10.9582 3.64167L10.2692 3.60825L9.58028 3.57484L9.37657 2.90723L9.17286 2.23961L8.94066 2.90723ZM24.5421 2.91411L24.345 3.57484L23.6546 3.60825L22.9642 3.64167L23.5084 4.03054C23.8077 4.24439 24.0526 4.44207 24.0526 4.46987C24.0526 4.4976 23.9781 4.77267 23.8869 5.08108C23.7958 5.38949 23.729 5.66509 23.7385 5.69349C23.748 5.7219 23.9878 5.56398 24.2715 5.34258L24.7872 4.94007L25.3161 5.31545C25.6069 5.52195 25.8569 5.67872 25.8716 5.66389C25.8862 5.64905 25.8063 5.35915 25.6939 5.01966C25.5815 4.68018 25.5002 4.39382 25.5132 4.38333C25.5262 4.37277 25.767 4.19039 26.0481 3.97808C26.3293 3.76577 26.5593 3.57711 26.5593 3.5588C26.5593 3.54049 26.2559 3.53661 25.885 3.55018L25.2108 3.57484L24.9958 2.97339C24.8776 2.64259 24.7715 2.34527 24.76 2.31266C24.7486 2.28005 24.6505 2.5507 24.5421 2.91411ZM4.77037 6.46516C4.75038 6.5662 4.67182 6.79589 4.59576 6.97546L4.45749 7.30198L3.96419 7.25667C3.69293 7.23181 3.47096 7.23622 3.47096 7.26663C3.47096 7.29697 3.55262 7.37289 3.65236 7.43524C3.75211 7.49765 3.93523 7.63525 4.05918 7.74111L4.28466 7.93351L4.11011 8.41059C4.01406 8.67296 3.95139 8.88768 3.97072 8.88768C3.99011 8.88768 4.18076 8.76739 4.39449 8.62037C4.60822 8.47335 4.80177 8.35305 4.82466 8.35305C4.84755 8.35305 5.04215 8.49012 5.25707 8.65766C5.47199 8.82526 5.64786 8.93366 5.64786 8.89864C5.64786 8.86362 5.58645 8.6336 5.51144 8.38747C5.35688 7.88065 5.32931 7.93965 5.8951 7.56809C6.04927 7.46685 6.1754 7.36273 6.17546 7.33673C6.17553 7.31074 5.9457 7.28066 5.66475 7.2699L5.1539 7.25039L5.02309 6.76588C4.95112 6.49937 4.87301 6.28138 4.84953 6.28138C4.82605 6.28138 4.79042 6.36411 4.77037 6.46516ZM28.8781 6.77751L28.7345 7.27846L28.1921 7.29784L27.6496 7.31722L27.9786 7.53501C28.5988 7.9458 28.5636 7.86648 28.3821 8.44521C28.2943 8.72535 28.2365 8.95451 28.2535 8.95451C28.2706 8.95451 28.4581 8.81918 28.6703 8.65378C28.8824 8.48838 29.0759 8.35305 29.1001 8.35305C29.1243 8.35305 29.3133 8.47335 29.5202 8.62037C29.7271 8.76739 29.9133 8.88768 29.9339 8.88768C29.9545 8.88768 29.8958 8.67289 29.8035 8.41033L29.6355 7.93297L29.8016 7.79216C29.8929 7.71471 30.084 7.55285 30.226 7.43243L30.4844 7.21357L29.9476 7.255L29.4108 7.29637L29.2633 6.83899C29.1821 6.58745 29.0946 6.35803 29.0688 6.3291C29.0429 6.30023 28.9572 6.50205 28.8781 6.77751ZM15.0481 7.35564C13.4075 8.03388 10.5513 9.21407 5.25965 11.4002C3.44879 12.1484 3.17351 12.2811 3.06368 12.4595C2.92132 12.6907 2.94461 12.9816 3.12113 13.1792C3.18189 13.2472 4.4877 13.9504 6.02295 14.7418L8.81427 16.1808V19.2127C8.81427 20.9698 8.84066 22.3149 8.87707 22.4119C9.02451 22.8048 10.558 23.9008 11.8817 24.5594C12.9547 25.0932 13.6853 25.3507 14.7404 25.5671C17.2764 26.0873 20.0332 25.6688 22.3375 24.4137C23.6141 23.7184 24.912 22.7363 25.0379 22.3705C25.0893 22.221 25.1103 21.2365 25.1055 19.1878C25.1017 17.5564 25.123 16.1983 25.1528 16.1697C25.1826 16.1411 26.2089 15.6012 27.4334 14.9698L29.6598 13.8218V15.9208V18.0198L29.4968 18.175C29.1677 18.4882 29.1297 18.9882 29.4078 19.3464C29.5292 19.5027 29.5325 19.5311 29.442 19.6336C29.3459 19.7422 28.7363 22.1846 28.7363 22.4607C28.7363 22.5338 28.8091 22.6673 28.8982 22.7575C29.0571 22.9185 29.0805 22.9216 30.1545 22.9216C31.2286 22.9216 31.252 22.9185 31.4109 22.7575C31.61 22.5558 31.6101 22.5437 31.4122 21.701C31.3239 21.3248 31.1892 20.7469 31.113 20.4169C31.0368 20.0867 30.9296 19.7474 30.8748 19.6627C30.7838 19.5221 30.7869 19.4937 30.9101 19.335C31.0078 19.2093 31.0451 19.0627 31.0451 18.805C31.0451 18.5045 31.0142 18.413 30.8472 18.2204L30.6493 17.9921V15.6725C30.6493 13.454 30.655 13.3455 30.7812 13.1829C30.9463 12.9703 30.9547 12.561 30.7977 12.3728C30.6785 12.2298 17.1583 6.61378 16.9421 6.61739C16.88 6.61846 16.0277 6.95066 15.0481 7.35564ZM11.0901 10.3601C7.89733 11.6809 5.24216 12.7784 5.18972 12.7989C5.08431 12.8403 16.7969 18.9119 16.9821 18.9119C17.0451 18.9119 17.1553 18.8715 17.2268 18.822C17.2984 18.7726 18.9303 17.9262 20.8532 16.9411C22.7761 15.956 24.3791 15.1287 24.4154 15.1026C24.4517 15.0766 25.4387 14.5651 26.6088 13.9659C27.7789 13.3667 28.7357 12.8586 28.7351 12.8368C28.7345 12.815 28.0592 12.521 27.2344 12.1834C25.6114 11.5192 24.0258 10.8659 19.7381 9.09425C18.2178 8.46606 16.9562 7.95355 16.9345 7.95536C16.9129 7.95716 14.2829 9.03931 11.0901 10.3601ZM10.1366 19.3964L10.1396 21.8858L10.5489 22.1957C12.0415 23.326 13.6436 24.0364 15.378 24.337C16.3863 24.5118 17.994 24.4787 18.9632 24.2631C20.5668 23.9065 22.2749 23.0811 23.5084 22.0668L23.7887 21.8362V19.3717C23.7887 17.5864 23.7682 16.9071 23.7143 16.9071C23.6734 16.9071 23.4879 16.9933 23.302 17.0987C22.3685 17.6282 17.0581 20.3153 16.9451 20.3153C16.8735 20.3153 16.6548 20.2299 16.4592 20.1254C15.6172 19.6759 10.2091 16.9071 10.1732 16.9071C10.1514 16.9071 10.135 18.0272 10.1366 19.3964ZM3.62769 22.5854C3.30564 23.0651 2.44128 24.3496 1.70687 25.4399C0.972461 26.5303 0.37876 27.4291 0.387534 27.4373C0.396307 27.4455 0.819088 27.3804 1.32703 27.2926C3.22404 26.9648 4.52075 26.8471 6.27455 26.8433C8.11918 26.8393 9.05452 26.9359 10.4043 27.2698C12.5557 27.802 14.3721 28.8129 15.7408 30.2397L16.1696 30.6867L15.5429 30.2718C13.7729 29.1002 11.3631 28.242 8.9462 27.9227C8.02959 27.8016 5.90916 27.8194 4.98437 27.9559C4.03972 28.0954 2.8254 28.3927 2.08565 28.6657C1.49281 28.8845 -0.040921 29.6109 0.000836004 29.6531C0.0143592 29.6668 0.288583 29.6322 0.610238 29.5763C2.63008 29.2248 6.02137 29.1303 8.31952 29.3616C10.9005 29.6213 13.5546 30.1402 16.0211 30.8671C16.266 30.9393 16.4664 30.9819 16.4664 30.9617C16.4664 30.9415 16.3571 30.7407 16.2235 30.5153C15.4306 29.178 14.1763 27.9301 12.7663 27.0756C11.4134 26.2556 9.83669 25.7143 7.92642 25.4139C6.98745 25.2663 4.53032 25.2649 3.60289 25.4116C3.25821 25.4661 2.96763 25.5034 2.95721 25.4944C2.94672 25.4855 3.23453 24.6407 3.59682 23.6171C3.95904 22.5935 4.246 21.7464 4.23432 21.7347C4.22271 21.7229 3.94974 22.1058 3.62769 22.5854ZM26.0976 25.3025C22.83 25.6123 20.2841 26.6678 18.3948 28.4963C17.7501 29.1201 17.1628 29.8585 16.7668 30.5429C16.4987 31.0065 16.4895 31.0397 16.6478 30.9749C17.0562 30.8077 19.4591 30.2015 20.7213 29.9472C23.2063 29.4464 25.2002 29.25 27.8127 29.2488C29.8428 29.2479 30.9396 29.3265 32.3886 29.5769C32.7102 29.6325 32.9848 29.6665 32.9988 29.6523C33.0529 29.5975 31.3057 28.7961 30.6461 28.5733C29.8645 28.3092 28.7486 28.0543 27.8127 27.9258C27.0181 27.8168 24.8725 27.8153 24.0526 27.9232C21.6551 28.2386 19.214 29.1047 17.5219 30.2401C17.2135 30.447 16.9315 30.6334 16.8952 30.6543C16.7391 30.7442 17.6589 29.8317 18.0496 29.509C20.9138 27.1439 24.7589 26.3712 30.1875 27.0698C31.102 27.1875 32.0316 27.3366 32.4964 27.44L32.6613 27.4768L32.4964 27.2968C31.7341 26.4652 30.1514 25.6996 28.6373 25.4304C28.0305 25.3225 26.6308 25.252 26.0976 25.3025Z" />
  </symbol>

<symbol id="tests" viewBox="0 0 21 25" >
<path fill-rule="evenodd" clip-rule="evenodd" d="M0.750127 0.0693226C0.63225 0.117292 0.415249 0.283145 0.267903 0.437711L0 0.718837V12.5177V24.3167L0.350309 24.6584L0.700619 25H10.2339H19.7671L20.1174 24.6584L20.4678 24.3168L20.5248 15.7752C20.5811 7.335 20.5847 7.22328 20.8231 6.35001C21.0804 5.40788 21.062 5.04931 20.7353 4.64445C20.561 4.42812 20.5313 4.16257 20.5017 2.55117L20.4678 0.70546L20.1174 0.364138L19.7671 0.0227123L10.3658 0.00233335C5.19506 -0.00884895 0.868004 0.0212492 0.750127 0.0693226ZM0.932301 0.931927C0.745626 1.11398 0.745626 23.9087 0.932301 24.0908C1.11865 24.2725 19.3491 24.2725 19.5355 24.0908C19.6328 23.9959 19.6627 22.4146 19.6584 17.5852L19.6526 11.205L19.2337 12.8249L18.8149 14.4447L18.8108 18.9124L18.8068 23.3801H10.2339H1.661V12.5114V1.64258H10.2339H18.8068V3.09262V4.54256L19.2354 4.33574L19.664 4.12892V2.59307C19.664 1.53797 19.6238 1.01804 19.5355 0.931927C19.3491 0.750189 1.11865 0.750189 0.932301 0.931927ZM2.51828 12.5114V22.5441H10.2339H17.9495L17.9376 20.3233C17.926 18.1614 17.9216 18.1191 17.7722 18.7296C17.4357 20.1036 17.4498 20.0788 16.5675 20.8558L15.7214 21.6008L15.3288 20.5262L14.9362 19.4516L16.4429 13.4214L17.9495 7.39122V4.93488V2.47864H10.2339H2.51828V12.5114ZM6.80472 4.15076V4.56879H10.2339H13.663V4.15076V3.73273H10.2339H6.80472V4.15076ZM19.5323 5.11745C19.2853 5.30421 19.0933 6.05008 19.2648 6.15626C19.337 6.20109 19.4525 6.2384 19.5213 6.23934C19.5902 6.24018 19.7163 6.26703 19.8017 6.29901C19.9144 6.34113 19.9905 6.22774 20.0784 5.88694C20.2294 5.30233 20.2322 5.34685 20.0315 5.151C19.828 4.95264 19.7565 4.94784 19.5323 5.11745ZM6.07442 6.37823C5.27039 7.16758 5.21424 7.32444 5.64235 7.58529C5.85174 7.71279 5.929 7.66503 6.65834 6.95856C7.09245 6.53802 7.44769 6.13933 7.44769 6.07265C7.44769 5.97368 7.00726 5.61386 6.88617 5.61386C6.86795 5.61386 6.50264 5.9578 6.07442 6.37823ZM4.60792 5.92258C4.49005 5.97013 4.27304 6.13556 4.1257 6.29013C3.88159 6.54628 3.8578 6.65392 3.8578 7.50137C3.8578 8.41257 3.86498 8.43849 4.20811 8.77323C4.55166 9.10828 4.57706 9.11486 5.51879 9.11486C6.45174 9.11486 6.48871 9.10556 6.81437 8.78796C7.06277 8.54571 7.16403 8.33586 7.2054 7.97803L7.26123 7.495H6.81865C6.40533 7.495 6.37608 7.51433 6.37608 7.78762C6.37608 7.94856 6.31821 8.13667 6.24749 8.20565C6.08053 8.36847 4.95705 8.36847 4.7901 8.20565C4.62314 8.04282 4.62314 6.94717 4.7901 6.78435C4.86082 6.71537 5.05371 6.65894 5.21874 6.65894C5.49736 6.65894 5.51879 6.62905 5.51879 6.24091C5.51879 5.83761 5.50658 5.82309 5.17052 5.82946C4.97902 5.83312 4.7258 5.87503 4.60792 5.92258ZM18.0007 10.7026C17.4864 12.7608 16.7859 15.5647 16.444 16.9337C15.931 18.988 15.8415 19.4763 15.9319 19.7293C16.0588 20.0844 16.0986 20.0943 16.4182 19.8507C16.6187 19.6979 16.8935 18.7136 18.2044 13.4519C19.0564 10.0319 19.7214 7.20342 19.6819 7.16632C19.6426 7.12933 19.4586 7.06787 19.2731 7.02973L18.9358 6.96055L18.0007 10.7026ZM8.09066 7.495V7.91303H12.3771H16.6635V7.495V7.07697H12.3771H8.09066V7.495ZM4.60792 10.0977C4.49005 10.148 4.27304 10.3159 4.1257 10.4704C3.88159 10.7266 3.8578 10.8342 3.8578 11.6817C3.8578 12.5929 3.86498 12.6188 4.20811 12.9535C4.55166 13.2886 4.57706 13.2952 5.51879 13.2952C6.46052 13.2952 6.48592 13.2886 6.82948 12.9535C7.17304 12.6185 7.17979 12.5937 7.17979 11.6753C7.17979 10.7573 7.17282 10.732 6.83023 10.3978C6.50232 10.0781 6.42902 10.0553 5.65146 10.0314C5.19538 10.0174 4.7258 10.0472 4.60792 10.0977ZM4.7901 10.9646C4.71937 11.0336 4.6615 11.3534 4.6615 11.6753C4.6615 11.9972 4.71937 12.317 4.7901 12.3859C4.86082 12.4549 5.18874 12.5114 5.51879 12.5114C5.84885 12.5114 6.17676 12.4549 6.24749 12.3859C6.31821 12.317 6.37608 11.9972 6.37608 11.6753C6.37608 11.3534 6.31821 11.0336 6.24749 10.9646C6.17676 10.8957 5.84885 10.8392 5.51879 10.8392C5.18874 10.8392 4.86082 10.8957 4.7901 10.9646ZM8.09066 11.6753V12.0933H11.9485H15.8062V11.6753V11.2573H11.9485H8.09066V11.6753ZM4.60792 14.278C4.49005 14.3283 4.27304 14.4962 4.1257 14.6507C3.88159 14.9069 3.8578 15.0145 3.8578 15.862C3.8578 16.7732 3.86498 16.7991 4.20811 17.1338C4.55166 17.4689 4.57706 17.4755 5.51879 17.4755C6.46052 17.4755 6.48592 17.4689 6.82948 17.1338C7.17304 16.7988 7.17979 16.774 7.17979 15.8556C7.17979 14.9376 7.17282 14.9123 6.83023 14.5781C6.50232 14.2584 6.42902 14.2356 5.65146 14.2117C5.19538 14.1977 4.7258 14.2275 4.60792 14.278ZM4.7901 15.1449C4.71937 15.2139 4.6615 15.5337 4.6615 15.8556C4.6615 16.1775 4.71937 16.4973 4.7901 16.5662C4.86082 16.6352 5.18874 16.6917 5.51879 16.6917C5.84885 16.6917 6.17676 16.6352 6.24749 16.5662C6.31821 16.4973 6.37608 16.1775 6.37608 15.8556C6.37608 15.5337 6.31821 15.2139 6.24749 15.1449C6.17676 15.076 5.84885 15.0195 5.51879 15.0195C5.18874 15.0195 4.86082 15.076 4.7901 15.1449ZM8.09066 15.8556V16.2736H11.5198H14.949V15.8556V15.4376H11.5198H8.09066V15.8556ZM4.60792 18.4583C4.49005 18.5086 4.27304 18.6765 4.1257 18.831C3.88159 19.0872 3.8578 19.1948 3.8578 20.0423C3.8578 20.9535 3.86498 20.9794 4.20811 21.3141C4.55166 21.6492 4.57706 21.6558 5.51879 21.6558C6.46052 21.6558 6.48592 21.6492 6.82948 21.3141C7.17304 20.9791 7.17979 20.9543 7.17979 20.0359C7.17979 19.1179 7.17282 19.0926 6.83023 18.7584C6.50232 18.4387 6.42902 18.4159 5.65146 18.392C5.19538 18.378 4.7258 18.4078 4.60792 18.4583ZM4.7901 19.3252C4.71937 19.3942 4.6615 19.714 4.6615 20.0359C4.6615 20.3578 4.71937 20.6776 4.7901 20.7465C4.86082 20.8155 5.18874 20.872 5.51879 20.872C5.84885 20.872 6.17676 20.8155 6.24749 20.7465C6.31821 20.6776 6.37608 20.3578 6.37608 20.0359C6.37608 19.714 6.31821 19.3942 6.24749 19.3252C6.17676 19.2563 5.84885 19.1998 5.51879 19.1998C5.18874 19.1998 4.86082 19.2563 4.7901 19.3252ZM8.09066 20.0359V20.4539H11.0912H14.0917V20.0359V19.6179H11.0912H8.09066V20.0359Z" fill="#009DE0"/>
</symbol>

<symbol id="exit"  viewBox="0 0 20 20">
<path d="M2.22222 20C1.61111 20 1.08778 19.7826 0.652222 19.3478C0.217407 18.9122 0 18.3889 0 17.7778V13.3333H2.22222V17.7778H17.7778V2.22222H2.22222V6.66667H0V2.22222C0 1.61111 0.217407 1.08778 0.652222 0.652222C1.08778 0.217407 1.61111 0 2.22222 0H17.7778C18.3889 0 18.9122 0.217407 19.3478 0.652222C19.7826 1.08778 20 1.61111 20 2.22222V17.7778C20 18.3889 19.7826 18.9122 19.3478 19.3478C18.9122 19.7826 18.3889 20 17.7778 20H2.22222ZM8.33333 15.5556L6.77778 13.9444L9.61111 11.1111H0V8.88889H9.61111L6.77778 6.05556L8.33333 4.44444L13.8889 10L8.33333 15.5556Z" />
<path d="M2.22222 20C1.61111 20 1.08778 19.7826 0.652222 19.3478C0.217407 18.9122 0 18.3889 0 17.7778V13.3333H2.22222V17.7778H17.7778V2.22222H2.22222V6.66667H0V2.22222C0 1.61111 0.217407 1.08778 0.652222 0.652222C1.08778 0.217407 1.61111 0 2.22222 0H17.7778C18.3889 0 18.9122 0.217407 19.3478 0.652222C19.7826 1.08778 20 1.61111 20 2.22222V17.7778C20 18.3889 19.7826 18.9122 19.3478 19.3478C18.9122 19.7826 18.3889 20 17.7778 20H2.22222ZM8.33333 15.5556L6.77778 13.9444L9.61111 11.1111H0V8.88889H9.61111L6.77778 6.05556L8.33333 4.44444L13.8889 10L8.33333 15.5556Z" fill-opacity="0.2"/>
</symbol>

</svg>
